<svg xmlns="http://www.w3.org/2000/svg" version="1.1" xmlns:xlink="http://www.w3.org/1999/xlink" width="1000" height="1000"><metadata><rdf:RDF xmlns:rdf="http://www.w3.org/1999/02/22-rdf-syntax-ns#" xmlns:dc="http://purl.org/dc/elements/1.1/"><rdf:Description><dc:creator>RealFaviconGenerator</dc:creator><dc:source>https://realfavicongenerator.net</dc:source></rdf:Description></rdf:RDF></metadata><g clip-path="url(#SvgjsClipPath1183)"><rect width="1000" height="1000" fill="#131316"></rect><g transform="matrix(1.0852713178294573,0,0,1.0852713178294573,160.3100775193799,150)"><svg xmlns="http://www.w3.org/2000/svg" width="626" height="645" viewBox="0 0 626 645" fill="none"><path d="M533.714 11.9842C623.409 145.464 505.944 188.19 436 192.868C444.827 207.812 464.503 241.208 472.594 255.242C480.686 269.277 494.393 268.961 500.235 267.049L506.463 265.378C704.228 191.777 612.742 60.0641 542.279 3.40777C538.567 0.807466 533.714 -1.66011 531.379 1.45859C529.043 4.57728 530.801 7.25841 533.714 11.9842Z" fill="#F9FAFB"></path><path d="M91.7999 11.9842C2.57718 145.464 119.424 188.19 189 192.868C180.22 207.812 160.647 241.208 152.598 255.242C144.549 269.277 130.915 268.961 125.104 267.049L118.907 265.378C-77.8162 191.777 13.1879 60.0641 83.2804 3.40777C86.973 0.807466 91.7999 -1.66011 94.1234 1.45859C96.4469 4.57728 94.6979 7.25841 91.7999 11.9842Z" fill="#F9FAFB"></path><path d="M386.447 179.056H306.743H244.925C220.353 179.056 208.507 190.206 205.656 195.78C196.455 209.263 175.408 242.064 164.833 265.4C152.002 293.792 140.338 287.18 135.284 287.18C131.24 287.18 105.087 279.92 92.5163 276.29C86.0363 273.697 68.0999 272.401 48.1935 287.958C23.3105 307.405 11.2578 317.128 12.0353 325.296C12.8129 333.463 26.4208 341.242 56.3582 360.3C86.2956 379.358 95.2379 376.635 111.179 372.357C127.119 368.078 148.503 335.019 154.335 334.63C159.001 334.319 161.204 339.946 161.722 342.798L184.661 441.587C212.655 565.268 223.541 599.884 234.816 622.442C243.836 640.488 261.902 645 269.808 645H356.121C365.841 645 379.448 637.221 389.946 621.664C398.344 609.218 407.183 579.4 410.552 566.046C410.552 566.046 457.597 341.631 466.928 335.408C470.532 333.004 474.574 337.353 475.87 339.297C479.24 343.705 489.634 355.633 504.252 368.078C518.871 380.524 539.374 374.82 547.798 370.412C560.758 363.152 589.943 346.298 603.007 336.964C616.07 327.629 612.079 319.332 608.45 316.35C605.08 313.368 594.064 303.749 576.957 289.125C559.85 274.501 540.54 274.216 533.023 275.901C530.561 276.29 520.426 278.623 499.587 284.846C478.747 291.069 467.835 282.254 464.984 277.068C457.078 263.714 438.079 231.018 425.327 207.06C412.574 183.101 394.093 178.408 386.447 179.056Z" fill="#F9FAFB"></path></svg></g></g><defs><clipPath id="SvgjsClipPath1183"><rect width="1000" height="1000" x="0" y="0" rx="50" ry="50"></rect></clipPath></defs></svg>